<svg width="24" height="24" viewBox="0 0 24 24" fill="none" xmlns="http://www.w3.org/2000/svg">
<path d="M6.28 22.75C4.15 22.75 2.41 21.01 2.41 18.88C2.41 16.75 4.15 15.01 6.28 15.01C8.41 15.01 10.15 16.75 10.15 18.88C10.15 21.01 8.41 22.75 6.28 22.75ZM6.28 16.51C4.97 16.51 3.91 17.57 3.91 18.88C3.91 20.19 4.97 21.25 6.28 21.25C7.59 21.25 8.65 20.19 8.65 18.88C8.65 17.57 7.59 16.51 6.28 16.51Z" fill="#212121"/>
<path d="M9.39999 19.6299C8.98999 19.6299 8.64999 19.2899 8.64999 18.8799V6.29989C8.64999 4.71989 9.59999 3.47989 11.12 3.06989L17.36 1.36989C18.63 1.01989 19.7 1.14989 20.45 1.72989C21.21 2.30989 21.59 3.27989 21.59 4.60989V16.8099C21.59 17.2199 21.25 17.5599 20.84 17.5599C20.43 17.5599 20.09 17.2199 20.09 16.8099V4.59989C20.09 4.01989 19.99 3.25989 19.54 2.91989C19.05 2.53989 18.21 2.68989 17.75 2.81989L11.51 4.51989C10.64 4.75989 10.15 5.40989 10.15 6.30989V18.8899C10.15 19.2899 9.80999 19.6299 9.39999 19.6299Z" fill="#212121"/>
<path d="M17.72 20.6699C15.59 20.6699 13.85 18.9299 13.85 16.7999C13.85 14.6699 15.59 12.9299 17.72 12.9299C19.85 12.9299 21.59 14.6699 21.59 16.7999C21.59 18.9299 19.85 20.6699 17.72 20.6699ZM17.72 14.4299C16.41 14.4299 15.35 15.4899 15.35 16.7999C15.35 18.1099 16.41 19.1699 17.72 19.1699C19.03 19.1699 20.09 18.1099 20.09 16.7999C20.09 15.4899 19.03 14.4299 17.72 14.4299Z" fill="#212121"/>
<path d="M9.4 10.27C9.07 10.27 8.77 10.05 8.68 9.72003C8.57 9.32003 8.8 8.90003 9.2 8.79003L20.64 5.67003C21.04 5.56003 21.45 5.80003 21.56 6.20003C21.67 6.60003 21.43 7.01003 21.03 7.12003L9.6 10.24C9.53 10.26 9.46 10.27 9.4 10.27Z" fill="#212121"/>
</svg>
