<svg width="67" height="84" viewBox="0 0 67 84" fill="none" xmlns="http://www.w3.org/2000/svg">
<g clip-path="url(#clip0_40001018_4919)">
<path d="M21.7702 88.8474C28.2314 89.0118 41.9527 88.9701 49.4007 86.0632C51.7195 85.1581 52.8549 82.5419 51.9099 80.2422L48.4053 71.7093C47.7208 70.0449 46.0975 68.957 44.2948 68.957H25.9151C24.7932 68.957 23.7118 69.3814 22.8897 70.1443L17.6069 75.0479C16.4727 76.1015 15.9689 77.6677 16.2798 79.1837L17.5319 85.3028C17.9461 87.3265 19.7033 88.7959 21.7714 88.8486L21.7702 88.8474Z" fill="#533EBE"/>
<path d="M19.3419 59.8072C19.3419 59.8072 1.03962 57.142 5.3086 31.4502C5.94146 27.6431 6.44774 23.8188 6.74389 19.9713C7.64217 8.27645 11.5499 -14.1136 28.5582 12.4957C28.5582 12.4957 41.6884 11.3047 42.8816 12.4957C42.8816 12.4957 59.0863 -17.4436 63.4118 16.3788C64.0496 21.3683 64.8766 26.3295 65.8633 31.2613C67.5014 39.4385 68.133 53.3116 55.4145 58.3624C55.4145 58.3624 59.0445 65.9104 57.4679 76.6632C56.9407 80.2569 55.6996 83.7242 53.6536 86.7267C50.2645 91.6978 44.3402 96.0225 39.3008 77.225C39.3008 77.225 40.4448 94.0221 30.8869 90.0776C28.6627 89.1602 26.8538 87.4602 25.7049 85.3494C24.4994 83.1343 23.0383 79.5872 22.3919 74.6444C22.3919 74.6444 21.7947 86.5575 24.5805 88.9406C24.5805 88.9406 -0.216257 93.4162 19.3444 59.806L19.3419 59.8072Z" fill="#6C61E3"/>
<path d="M11.8375 80.7269C11.8375 80.7269 14.7843 62.7646 6.90617 61.7294C5.94153 61.603 4.96461 61.7956 4.07861 62.1942C2.00188 63.1288 -2.00045 65.5659 1.19207 69.4797C1.86302 70.3015 2.73058 70.9295 3.66204 71.4409C4.41163 71.853 5.46474 72.9716 5.1391 75.9864C5.0113 77.1724 5.01376 78.372 5.25093 79.5408C5.83708 82.4293 7.85484 86.386 14.6012 85.4085L11.8375 80.7256V80.7269Z" fill="#6C61E3"/>
<path d="M10.7929 23.2217C10.7929 23.2217 11.9124 15.962 25.4517 13.7285C25.4517 13.7285 18.2814 -0.786088 13.8232 4.75285C13.4079 5.26921 13.1129 5.8702 12.9102 6.50063C12.0758 9.08367 9.36374 18.1795 10.7941 23.2229L10.7929 23.2217Z" fill="#533EBE"/>
<path d="M47.7197 12.1646C47.7197 12.1646 58.4622 15.4038 61.2603 20.8765C61.2603 20.8765 61.5958 -2.3549 53.204 4.23516C53.204 4.23516 49.8468 7.02793 47.721 12.1646H47.7197Z" fill="#533EBE"/>
<path d="M27.0786 44.152C32.1897 44.152 36.333 40.0165 36.333 34.9151C36.333 29.8137 32.1897 25.6782 27.0786 25.6782C21.9675 25.6782 17.8242 29.8137 17.8242 34.9151C17.8242 40.0165 21.9675 44.152 27.0786 44.152Z" fill="white"/>
<path d="M27.0786 40.2897C30.0526 40.2897 32.4634 37.8834 32.4634 34.9151C32.4634 31.9468 30.0526 29.5405 27.0786 29.5405C24.1047 29.5405 21.6938 31.9468 21.6938 34.9151C21.6938 37.8834 24.1047 40.2897 27.0786 40.2897Z" fill="#404041"/>
<path d="M48.6177 44.152C53.7287 44.152 57.8721 40.0165 57.8721 34.9151C57.8721 29.8137 53.7287 25.6782 48.6177 25.6782C43.5066 25.6782 39.3633 29.8137 39.3633 34.9151C39.3633 40.0165 43.5066 44.152 48.6177 44.152Z" fill="white"/>
<path d="M48.6177 40.2897C51.5916 40.2897 54.0025 37.8834 54.0025 34.9151C54.0025 31.9468 51.5916 29.5405 48.6177 29.5405C45.6438 29.5405 43.2329 31.9468 43.2329 34.9151C43.2329 37.8834 45.6438 40.2897 48.6177 40.2897Z" fill="#404041"/>
<path d="M37.2844 45.5073C37.857 45.0167 38.0758 44.0576 38.0758 44.0576C38.0758 44.0576 38.2355 43.5609 37.8386 43.502C37.4417 43.4431 37.4331 43.8847 37.4196 43.8945C36.9723 45.7882 34.5318 46.0654 34.5318 46.0654C34.1926 46.112 34.2086 46.4125 34.2086 46.4125C34.232 46.7351 34.5502 46.7424 34.5502 46.7424C35.9388 46.5585 36.7474 45.955 36.7474 45.955" fill="#090909"/>
<path d="M37.9047 45.5073C37.332 45.0167 37.1133 44.0576 37.1133 44.0576C37.1133 44.0576 36.9536 43.5609 37.3505 43.502C37.7474 43.4431 37.756 43.8847 37.7695 43.8945C38.2168 45.7882 40.6573 46.0654 40.6573 46.0654C40.9964 46.112 40.9805 46.4125 40.9805 46.4125C40.9571 46.7351 40.6389 46.7424 40.6389 46.7424C39.2503 46.5585 38.4417 45.955 38.4417 45.955" fill="#090909"/>
<path d="M19.3418 59.8071C19.3418 59.8071 27.3465 63.0341 40.7162 60.6461C40.7162 60.6461 21.3301 65.1511 19.3418 59.8071Z" fill="#533EBE"/>
<path d="M36.4315 43.6075C36.4315 43.6075 37.4932 45.4988 38.6692 44.1128C38.6692 44.1128 39.7174 42.9525 38.2465 42.6999C38.04 42.6643 37.8287 42.6581 37.6198 42.6716C37.0754 42.7072 36.0124 42.8691 36.4315 43.6075Z" fill="#090909"/>
</g>
<defs>
<clipPath id="clip0_40001018_4919">
<rect width="66.7333" height="91" fill="white"/>
</clipPath>
</defs>
</svg>
