<svg width="24" height="24" viewBox="0 0 24 24" fill="none" xmlns="http://www.w3.org/2000/svg">
<path d="M4.17578 2.42822H4.18164C6.30026 2.59197 9.54253 3.66593 11.3545 4.80322L11.3613 4.80811L11.3682 4.81201L11.6084 4.95166L11.6123 4.95459C11.7538 5.03527 11.9072 5.04929 11.9922 5.05127C12.0735 5.05316 12.2239 5.04666 12.3633 4.97705L12.3848 4.96631L12.4053 4.95361L12.5654 4.854V4.85303C14.374 3.71789 17.6053 2.62751 19.7354 2.43994H19.8535L19.8779 2.43799C20.4597 2.38226 21.0696 2.58945 21.5293 3.01611L21.5332 3.01904C21.9955 3.44079 22.25 4.02544 22.25 4.68018V16.7505C22.2497 17.8388 21.3574 18.8447 20.29 18.9741L19.96 19.0132L19.9551 19.0142C17.8324 19.2924 14.4729 20.4022 12.5889 21.4419H12.5879L12.5781 21.4478C12.4346 21.5315 12.2379 21.5796 12 21.5796C11.774 21.5796 11.5603 21.5268 11.3945 21.4341L11.3896 21.4312L11.0127 21.2339C9.05337 20.2483 5.98712 19.2656 3.99707 19.0044H3.99805L3.70801 18.9644L3.7002 18.9634C2.64461 18.8342 1.75 17.8203 1.75 16.7397V4.65967C1.75009 4.00515 2.00468 3.42117 2.4668 2.99951C2.93261 2.57456 3.53457 2.37068 4.17578 2.42822ZM19.873 2.92041H19.7578L19.7354 2.92236C18.727 3.01216 17.4385 3.32382 16.1992 3.74072C14.9594 4.15779 13.7296 4.69255 12.8447 5.24561L12.8359 5.25146L12.8271 5.2583L12.6797 5.35791C12.2879 5.59596 11.7175 5.59161 11.3545 5.36572L11.3486 5.36182L11.3418 5.35791L11.1016 5.21826C10.2034 4.66842 8.97161 4.13804 7.72559 3.72607C6.47561 3.31282 5.17424 3.00576 4.14062 2.92139L4.12012 2.92041H3.98047L3.81641 2.92725C3.43832 2.96071 3.08752 3.11059 2.80273 3.37061L2.80176 3.37158C2.44233 3.70226 2.25009 4.16918 2.25 4.65967V16.7397C2.25 17.1769 2.43625 17.5808 2.7002 17.8813C2.96379 18.1814 3.33759 18.4157 3.76074 18.4751L3.76367 18.4761L4.06348 18.5151C6.25237 18.807 9.64425 19.9181 11.5908 20.979L11.6084 20.9888L11.627 20.9966C11.732 21.0433 11.8418 21.0658 11.9307 21.0747C11.9975 21.0814 12.1442 21.0914 12.2861 21.0347L12.3154 21.0229L12.3428 21.0073C14.2873 19.9281 17.6969 18.808 19.8955 18.5161L19.8945 18.5151L20.2285 18.4771L20.2305 18.4761C20.6604 18.4233 21.0374 18.1857 21.3008 17.8843C21.5646 17.5823 21.75 17.1761 21.75 16.7397V4.67041C21.75 4.16563 21.5553 3.71462 21.2061 3.37939L21.1992 3.37256L21.1914 3.36572L21.0498 3.25244C20.7099 3.00791 20.303 2.89718 19.873 2.92041Z" fill="#212121" stroke="#212121"/>
<path d="M12 5.23999C12.1339 5.23999 12.25 5.35613 12.25 5.48999V20.49C12.25 20.6295 12.1382 20.74 12 20.74C11.8661 20.74 11.75 20.6238 11.75 20.49V5.48999C11.75 5.35613 11.8661 5.23999 12 5.23999Z" fill="#212121" stroke="#212121"/>
<path d="M5.5 8.23999H7.75C7.88386 8.23999 8 8.35613 8 8.48999C8 8.62385 7.88386 8.73999 7.75 8.73999H5.5C5.36614 8.73999 5.25 8.62385 5.25 8.48999C5.25 8.35613 5.36614 8.23999 5.5 8.23999Z" fill="#212121" stroke="#212121"/>
<path d="M5.5 11.24H8.5C8.63386 11.24 8.75 11.3561 8.75 11.49C8.75 11.6238 8.63386 11.74 8.5 11.74H5.5C5.36614 11.74 5.25 11.6238 5.25 11.49C5.25 11.3561 5.36614 11.24 5.5 11.24Z" fill="#212121" stroke="#212121"/>
</svg>
