<svg width="28" height="20" viewBox="0 0 28 20" fill="none" xmlns="http://www.w3.org/2000/svg">
<rect width="28" height="20" rx="2" fill="white"/>
<mask id="mask0_40000445_17970" style="mask-type:luminance" maskUnits="userSpaceOnUse" x="0" y="0" width="28" height="20">
<rect width="28" height="20" rx="2" fill="white"/>
</mask>
<g mask="url(#mask0_40000445_17970)">
<rect width="28" height="20" fill="#0A17A7"/>
<path d="M30.7734 0.294495L21.3262 6.66656H28V13.3336H21.3262L30.7734 19.7056L29.2822 21.9166L17.334 13.857V21.3336H10.667V13.856L-1.28223 21.9166L-2.77344 19.7056L6.67383 13.3336H0V6.66656H6.67383L-2.77344 0.294495L-1.28223 -1.91644L10.667 6.14313V-1.33344H17.334V6.14215L29.2822 -1.91644L30.7734 0.294495Z" fill="white"/>
<path d="M18.668 6.33219L31.3333 -2" stroke="#DB1F35" stroke-width="0.666667" stroke-linecap="round"/>
<path d="M20.0127 13.6975L31.3665 21.3503" stroke="#DB1F35" stroke-width="0.666667" stroke-linecap="round"/>
<path d="M8.00562 6.31046L-3.8374 -1.67099" stroke="#DB1F35" stroke-width="0.666667" stroke-linecap="round"/>
<path d="M9.29012 13.6049L-3.8374 22.3105" stroke="#DB1F35" stroke-width="0.666667" stroke-linecap="round"/>
<path fill-rule="evenodd" clip-rule="evenodd" d="M0 12H12V20H16V12H28V8H16V0H12V8H0V12Z" fill="#E6273E"/>
</g>
</svg>
