<svg width="28" height="20" viewBox="0 0 28 20" fill="none" xmlns="http://www.w3.org/2000/svg">
<rect width="28" height="20" rx="2" fill="white"/>
<mask id="mask0_40000445_19041" style="mask-type:luminance" maskUnits="userSpaceOnUse" x="0" y="0" width="28" height="20">
<rect width="28" height="20" rx="2" fill="white"/>
</mask>
<g mask="url(#mask0_40000445_19041)">
<rect width="28" height="20" fill="#E92434"/>
<path fill-rule="evenodd" clip-rule="evenodd" d="M19.0209 10.7684L17.7961 12.2534L17.8795 10.3302L16.0887 9.62426L17.9435 9.10933L18.0615 7.18802L19.1244 8.7929L20.9882 8.31145L19.7903 9.81825L20.8241 11.442L19.0209 10.7684Z" fill="white"/>
<path d="M12.6665 4C14.591 4 16.302 4.90758 17.3999 6.31641C16.553 5.70135 15.4897 5.33308 14.3335 5.33301C11.5721 5.33301 9.3335 7.42267 9.3335 10C9.3335 12.5773 11.5721 14.667 14.3335 14.667C15.4899 14.6669 16.5529 14.2979 17.3999 13.6826C16.302 15.0918 14.5913 16 12.6665 16C9.3528 16 6.6665 13.3137 6.6665 10C6.6665 6.68629 9.3528 4 12.6665 4Z" fill="white"/>
</g>
</svg>
