<svg width="24" height="24" viewBox="0 0 24 24" fill="none" xmlns="http://www.w3.org/2000/svg">
<path d="M10.43 18.3699C10.28 18.3699 10.14 18.3299 10.01 18.2399C9.8 18.0999 9.68 17.8699 9.68 17.6199C9.68 17.4699 9.67 17.3099 9.65 17.1499C9.56 16.4399 9.24 15.8199 8.7 15.2799C8.16 14.7399 7.49 14.3999 6.77 14.3099C6.65 14.2999 6.48 14.2899 6.32 14.2999C6.06 14.3199 5.82 14.2099 5.67 13.9999C5.52 13.7999 5.48 13.5299 5.56 13.2899C5.71 12.8799 5.93 12.5099 6.19 12.2099L7.73 10.2699C10.38 6.95992 15.75 2.97992 19.68 1.39992C20.51 1.07992 21.4 1.26992 22.01 1.86992C22.64 2.49992 22.83 3.39992 22.5 4.21992C20.92 8.15992 16.95 13.5199 13.64 16.1699L11.67 17.7499C11.3 18.0199 11 18.1899 10.7 18.3099C10.62 18.3499 10.52 18.3699 10.43 18.3699ZM7.54 12.9399C8.38 13.1599 9.13 13.5999 9.76 14.2299C10.39 14.8499 10.81 15.5699 11.02 16.3699L12.71 15.0099C15.85 12.4999 19.62 7.40992 21.11 3.66992C21.26 3.29992 21.05 3.03992 20.95 2.94992C20.88 2.87992 20.62 2.65992 20.22 2.80992C16.5 4.30992 11.41 8.07992 8.89 11.2199L7.54 12.9399Z" fill="#212121"/>
<path d="M4.08 22.7501C3.33 22.7501 2.61 22.4501 2.07 21.9101C1.45 21.2901 1.15 20.4301 1.25 19.5501L1.52 17.0901C1.78 14.6501 3.78 12.8401 6.26 12.7901C6.45 12.7801 6.7 12.7901 6.93 12.8101C8.02 12.9501 8.99 13.4401 9.77 14.2201C10.54 14.9901 11 15.9101 11.14 16.9401C11.17 17.1601 11.19 17.4001 11.19 17.6101C11.19 18.9301 10.68 20.1601 9.76 21.0901C8.99 21.8501 8 22.3201 6.88 22.4601L4.41 22.7301C4.3 22.7401 4.19 22.7501 4.08 22.7501ZM6.45 14.3001C6.41 14.3001 6.36 14.3001 6.32 14.3001C4.81 14.3301 3.21 15.3601 3.01 17.2601L2.74 19.7201C2.69 20.1401 2.84 20.5501 3.13 20.8501C3.42 21.1401 3.83 21.2901 4.24 21.2401L6.7 20.9701C7.47 20.8701 8.16 20.5501 8.68 20.0301C9.32 19.3901 9.68 18.5301 9.68 17.6101C9.68 17.4601 9.67 17.3001 9.65 17.1401C9.56 16.4301 9.24 15.8101 8.7 15.2701C8.16 14.7301 7.49 14.3901 6.77 14.3001C6.69 14.3001 6.57 14.3001 6.45 14.3001Z" fill="#212121"/>
<path d="M14.24 15.22C13.83 15.22 13.49 14.88 13.49 14.47C13.49 12.27 11.7 10.49 9.51 10.49C9.1 10.49 8.76 10.15 8.76 9.73999C8.76 9.32999 9.09 8.98999 9.5 8.98999C12.52 8.98999 14.98 11.45 14.98 14.47C14.99 14.89 14.65 15.22 14.24 15.22Z" fill="#212121"/>
</svg>
